<?xml version="1.0" encoding="utf-8"?>
<!-- Generator: Adobe Illustrator 24.0.3, SVG Export Plug-In . SVG Version: 6.00 Build 0)  -->
<svg version="1.1" id="Ebene_1" xmlns="http://www.w3.org/2000/svg" xmlns:xlink="http://www.w3.org/1999/xlink" x="0px" y="0px"
	 viewBox="0 0 512 512" style="enable-background:new 0 0 512 512;" xml:space="preserve">
<style type="text/css">
	.st0{fill-rule:evenodd;clip-rule:evenodd;}
	.st1{fill:#1A1A1A;stroke:#000000;}
	.st2{fill:#505050;}
</style>
<path d="M476.07,455.94v34.52c0,3.06-2.47,5.54-5.53,5.54c0,0-0.01,0-0.01,0c-3.06,0-5.54-2.48-5.54-5.54c0,0,0,0,0,0v-29
	l-125.02-0.28c-3.05-0.01-5.53-2.48-5.53-5.54v-23.98H205.6v23.98c0,3.05-2.47,5.53-5.53,5.54l-125.02,0.28v29
	c-0.02,3.06-2.52,5.52-5.58,5.49c-3.02-0.02-5.47-2.47-5.5-5.49v-34.52c0-3.05,2.47-5.53,5.52-5.54l125.03-0.29v-23.99
	c0-3.06,2.47-5.54,5.53-5.54c0,0,0,0,0,0h139.92c3.06,0,5.54,2.48,5.54,5.54v23.99l125.03,0.29
	C473.6,450.4,476.07,452.88,476.07,455.94z M223.38,65.83c0-27.47,21.98-49.83,48.99-49.83s48.99,22.35,48.99,49.83
	c0,27.47-21.98,49.82-48.99,49.82C245.36,115.65,223.38,93.3,223.38,65.83z M234.45,65.83c0,21.37,17.01,38.75,37.91,38.75
	s37.92-17.38,37.92-38.75s-17-38.75-37.92-38.75C251.46,27.08,234.45,44.45,234.45,65.83z M115.49,105.14l98.43,80.59V350.1
	c0,31.98,16.53,43.38,31.99,43.38c8.35,0.03,16.39-3.14,22.47-8.87c-0.05-0.38-0.05-0.76,0-1.13c0.31-2.2,2.35-3.73,4.55-3.42
	c2.2,0.31,3.73,2.35,3.42,4.55c6.08,5.73,14.12,8.9,22.47,8.87c15.46,0,31.98-11.4,31.98-43.38V185.73l98.46-80.62
	c5.69-4.74,8.97-11.77,8.94-19.18c-0.01-5.64-1.92-11.12-5.42-15.55c-0.07-0.09-0.15-0.18-0.22-0.28
	c-8.45-10.34-23.68-11.86-34.02-3.41L311.83,135c-2.33,1.89-2.74,5.29-0.91,7.67c1.86,2.43,5.34,2.89,7.76,1.03l86.85-68.39
	c0.06-0.05,0.13-0.1,0.19-0.16c5.67-4.5,13.91-3.56,18.41,2.11c1.95,2.47,3.01,5.53,3.02,8.67c0.03,4.1-1.78,8-4.91,10.64
	l-100.46,82.25c-1.29,1.05-2.03,2.63-2.03,4.29V350.1c0,20.53-7.63,32.3-20.92,32.3c-5.52,0.03-10.84-2.06-14.86-5.84
	c-3.82-3.5-6.02-8.43-6.06-13.61c0-0.04,0-0.07-0.01-0.11v-83.95c0-3.06-2.48-5.54-5.54-5.54c-3.06,0-5.54,2.48-5.54,5.54v84.16
	c-0.06,5.14-2.25,10.04-6.04,13.51c-4.02,3.78-9.34,5.87-14.86,5.84c-13.29,0-20.92-11.77-20.92-32.3V183.11
	c0-1.66-0.74-3.24-2.03-4.29L122.55,96.6c-3.16-2.64-4.97-6.55-4.95-10.67c0.01-3.14,1.06-6.19,3-8.65c0.08-0.1,0.17-0.21,0.25-0.31
	c4.67-5.53,12.93-6.24,18.47-1.57l86.73,68.31c2.4,1.89,5.88,1.48,7.78-0.92c1.89-2.4,1.48-5.88-0.92-7.78l-86.63-68.23
	c-0.13-0.11-0.26-0.21-0.39-0.32c-10.47-8.29-25.68-6.53-33.97,3.94c-3.49,4.43-5.39,9.9-5.4,15.53
	C106.5,93.35,109.79,100.39,115.49,105.14z M170.64,279.52c2.35,1.96,5.85,1.63,7.8-0.72c1.95-2.36,1.63-5.85-0.72-7.8l-58.39-48.47
	c-1.81-1.49-4.37-1.69-6.38-0.48L6.08,285.93c-1.67,1-2.7,2.81-2.69,4.76c0,3.06,2.49,5.54,5.54,5.53c1,0,1.98-0.27,2.83-0.79
	l103.5-61.89L170.64,279.52z M506.06,198.98l-53.29-15.77c-0.08-0.02-0.15-0.05-0.23-0.07c-2.95-0.8-5.99,0.94-6.8,3.89
	c-0.8,2.95,0.94,6,3.89,6.8l39.52,11.7l-122.57,64.85c-1.81,0.96-2.95,2.85-2.95,4.9c0,3.06,2.48,5.54,5.54,5.53
	c0.9,0,1.79-0.22,2.58-0.65l123.44-65.31l-13.35,40.76c-0.18,0.55-0.27,1.12-0.27,1.7c-0.01,3.07,2.47,5.56,5.54,5.56
	c2.39-0.01,4.51-1.55,5.25-3.82l17.38-53.04c0.02-0.05,0.03-0.1,0.05-0.16C510.66,202.92,508.99,199.84,506.06,198.98z"/>
</svg>
