<?xml version="1.0" encoding="utf-8"?>
<!-- Generator: Adobe Illustrator 24.0.3, SVG Export Plug-In . SVG Version: 6.00 Build 0)  -->
<svg version="1.1" id="Ebene_1" xmlns="http://www.w3.org/2000/svg" xmlns:xlink="http://www.w3.org/1999/xlink" x="0px" y="0px"
	 viewBox="0 0 512 512" style="enable-background:new 0 0 512 512;" xml:space="preserve">
<style type="text/css">
	.st0{fill-rule:evenodd;clip-rule:evenodd;}
	.st1{fill:#1A1A1A;stroke:#000000;}
	.st2{fill:none;stroke:#000000;stroke-width:11;stroke-miterlimit:10;}
</style>
<path d="M314.4,411.4v-8.9h58.1l-12.3-9.2C337.2,376,324,349.6,324,320.9c0-34.4,20-66.4,51.1-81.4l4.2-2L357,177l-76.6,136.3
	c-4.2,7.4-12,12-20.5,12h-41.8l-0.5,4.6c-2.5,25-15.6,48.1-35.8,63.4l-12.3,9.2h77.3v8.9H7v-8.9h78.7l-12.3-9.2
	c-23.1-17.3-36.3-43.7-36.3-72.4c0-49.9,40.6-90.5,90.5-90.5c8.6,0,17.1,1.2,25.2,3.6l4.2,1.2l20.9-43.8h-69.5c-7.7,0-14-6.3-14-14
	v-19.1c0-7.7,6.3-14,14-14h86.1c7.7,0,14,6.3,14,14v19.1c0,5.7-3.5,10.8-8.8,13l-5.8,2.3l76.9,119.6l82.3-146.4l-0.2-1.7
	c-0.1-1.1-0.2-2-0.2-2.9c0-9.5,6-17.8,15-20.8l5.3-1.8c5-1.7,8.4-6.3,8.4-11.6c0-6.8-5.5-12.2-12.2-12.2h-35.6V106h35.6
	c11.6,0,21.1,9.5,21.1,21.1c0,9.1-5.8,17.1-14.4,20l-5.3,1.8c-5.3,1.8-8.9,6.8-8.9,12.4c0,1.5,0.3,3,0.8,4.5l25.2,68.5l4.5-1.2
	c7.3-1.9,14.9-2.8,22.5-2.8c49.9,0,90.5,40.6,90.5,90.5c0,28.7-13.2,55.1-36.3,72.4l-12.3,9.2H505v8.9H314.4z M377.1,248.3
	c-27.3,14.1-44.2,41.9-44.2,72.5c0,45,36.6,81.6,81.6,81.6c45,0,81.7-36.6,81.7-81.6s-36.6-81.6-81.7-81.6c-6.1,0-12.2,0.7-18.2,2.1
	l-5.7,1.3l29.2,79.5l-8.3,3.1l-29.2-79.5L377.1,248.3z M127.6,239.2c-45,0-81.6,36.6-81.6,81.6s36.6,81.6,81.6,81.6
	c41.1,0,75.9-30.7,81-71.4l0.7-5.8h-70.4c-8.7,0-15.8-7.1-15.8-15.8c0-2.2,0.4-4.3,1.3-6.3l28.7-60.1l-6.1-1.5
	C140.7,240,134.1,239.2,127.6,239.2z M165.3,238.4l4.4,2.3c27,14.3,45,40.8,48,71.1l0.5,4.6h44.8L185.5,196L165.3,238.4z
	 M132.1,307.8l0,1.1c-0.1,2.1,0.7,4.1,2,5.5c1.3,1.3,3,2,4.8,2h70.4l-0.7-5.8c-3.3-26.1-19.1-49.2-42.4-61.7l-4.7-2.6L132.1,307.8z
	 M103.3,182.5h96.4l0-29.4h-96.3V182.5z M272.2,411.4v-8.9H289v8.9H272.2z"/>
</svg>
