<?xml version="1.0" encoding="utf-8"?>
<!-- Generator: Adobe Illustrator 24.0.3, SVG Export Plug-In . SVG Version: 6.00 Build 0)  -->
<svg version="1.1" id="Ebene_1" xmlns="http://www.w3.org/2000/svg" xmlns:xlink="http://www.w3.org/1999/xlink" x="0px" y="0px"
	 viewBox="0 0 512 512" style="enable-background:new 0 0 512 512;" xml:space="preserve">
<path d="M68.66,454c-21.79,0-44.49-8.01-56.48-19.94l-0.09-0.08c-5.69-5.22-9.07-12.64-9.28-20.36c0-15.99,15.91-36.09,37.82-47.73
	l2.7-1.44l-1.49-2.67c-9.28-16.64-13.06-29.2-13.06-43.34c0-8.84,1.74-16.48,5.18-22.7l0.46-0.84c0.24-0.41,0.51-0.86,0.79-1.29
	l0.08-0.13c15.74-27.01,37.63-48.3,63.29-61.55l1.95-1.01l-0.37-2.17c-1.32-7.65-2.02-15.37-2.09-22.93
	C98.15,131.2,158.96,70.39,233.63,70.3c20.59,0,42.29,5.73,64.5,17.02l1.82,0.93l1.53-1.35c17.28-15.31,32.15-16.6,44.73-16.6
	c29.59,0,58.42,12.61,81.18,35.51l1.62,1.63l2-1.14c11.15-6.38,23.77-9.84,36.49-10.02c27.45,0,40.26,12.81,40.26,40.3
	c0,24.59-12.6,47.96-34.57,64.11l-1.39,1.02l0.19,1.72c0.73,6.78,1.1,13.43,1.1,19.77c0,19.64-7.53,27.19-18.94,38.62
	c-11.83,12.21-25.1,23.36-39.49,33.19l-0.73,0.5l-0.34,0.81c-16.57,38.98-59.63,64.01-121.25,70.48l-2.22,0.23l-0.42,2.19
	c-4.46,23.55-19.04,44.01-42.17,59.17c-19.87,13.02-45.7,21.83-73.02,24.96l-3.04,0.27c-2.62,0.28-4.89,0.4-7.14,0.4
	c-12.83,0-26.75-4.14-42.58-12.65l-1.43-0.77l-1.43,0.78c-14.84,8.07-32.52,12.56-49.8,12.65H68.66z M20.26,426.12
	c9.72,9.6,30.06,16.56,48.43,16.56h0.36c17.75-0.09,36.09-5.55,50.32-14.97c13.78-9.12,22.01-20.83,22.01-31.33
	c-0.01-15.17-30.34-28.98-63.63-28.98c-22.79,0-42.9,13.41-53.19,24.89l-2.12,2.36l2.48,1.98c10.29,8.23,23.06,11.2,49.83,11.4
	v11.32c-28.38-0.22-43-3.58-55.13-12.51l-3.52-2.6l-1.15,4.22c-0.56,2.04-0.82,3.71-0.82,5.24v0.11l0.01,0.11
	C14.47,418.61,16.7,423.05,20.26,426.12z M77.75,356.09c19.02,0,37.96,4.07,51.98,11.16c18.98,9.6,22.96,21.15,22.96,29.14
	c0,11.74-6.42,23.85-18.07,34.11l-3.49,3.08l4.24,1.91c10.74,4.83,20.22,7.18,28.98,7.18c2.33,0,4.54-0.12,6.57-0.35l0.11-0.01
	c0.06-0.01,0.12-0.02,0.18-0.02l0.16-0.02c15.19-1.86,21.96-10.68,21.96-28.58c0-13.42-4.27-24.24-11.26-36.78l9.83-5.64
	c7.71,13.85,12.75,26.6,12.75,42.42c0,6.71-0.88,12.69-2.63,17.78l-1.91,5.58l5.64-1.74c21.3-6.59,39.27-16.87,51.99-29.74
	c14.64-14.82,22.11-32.48,22.2-52.5c0.13-26.56-14.97-57.67-40.4-83.23c-25.53-25.65-56.87-40.96-83.84-40.96
	c-33.14,0-66.6,16.18-91.81,44.39l-4.72,5.28l7.08-0.29l0.91-0.04c0.64-0.03,1.28-0.06,1.94-0.06c18.79,0,45.95,12.03,69.85,30.82
	l-7.15,8.8c-21.38-16.75-46.82-28.29-62.7-28.29c-19.5,0-28.98,9.48-28.98,28.98c0,14.57,5.03,26.36,12.58,39.57l1.19,2.08
	l2.29-0.69C63.44,357.21,70.71,356.09,77.75,356.09z M155.69,217.5c29.89,0,64.23,16.57,91.85,44.32
	c27.13,27.23,43.45,60.99,43.68,90.31l0.03,3.38l3.35-0.42c4.97-0.63,10.04-1.44,15.05-2.4l1.89-0.36l0.46-1.87
	c1.91-7.76,2.78-15.65,2.59-23.43c0-14.31-5.03-31.84-14.95-52.08l10.12-5.11c10.73,21.89,16.17,41.14,16.17,57.27
	c0.12,5.78-0.3,11.73-1.25,17.77l-0.73,4.65l4.52-1.29c67.26-19.24,81.38-59.8,81.38-90.43c0-34.32-21.73-78.36-56.7-114.92
	c-37.26-38.95-80.82-61.29-119.51-61.29c-40.53,0.05-78.61,19.96-101.87,53.25l-3.3,4.72h10.58c13.77,0,27.32,2.06,40.36,6.11
	c15.79,5.59,30.78,13.19,44.6,22.59l-6.31,9.4c-12.88-8.74-26.82-15.83-41.48-21.11l-0.12-0.04c-11.98-3.73-24.41-5.62-36.94-5.62
	h-16.91l-0.81,1.71c-7.96,16.71-12,34.63-12.02,53.26c0.05,5.36,0.48,10.95,1.27,16.64l0.51,3.66l3.48-1.25
	C128.26,219.99,142.07,217.5,155.69,217.5z M346.2,81.61c-9.63,0-20.07,0.76-32.35,9.78l-3.55,2.61l3.74,2.35
	c29.06,18.23,56.05,44.76,76,74.7c20.06,30.11,31.11,60.92,31.11,86.76c0,4.1-0.24,8.17-0.73,12.44l-0.85,7.36l5.73-4.7
	c7.55-6.19,14.57-12.63,20.86-19.13c10.72-10.71,15.64-15.62,15.61-30.61C461.78,145.11,409.93,81.61,346.2,81.61z M467.41,107.59
	c-9.49,0.17-19.01,2.5-27.53,6.75l-3.28,1.63l2.25,2.89c14.3,18.41,24.67,40.91,30.01,65.08l1.13,5.12l3.84-3.58
	c14.58-13.57,22.61-30.94,22.61-48.92c0-21.4-7.58-28.98-28.98-28.98h-0.03L467.41,107.59z M164.78,349.46
	c-1.78-2.37-3.63-4.72-5.53-7.02l8.61-7.35c2.14,2.58,4.18,5.17,6.1,7.74L164.78,349.46z M276.82,236.96
	c-1.64-2.38-3.01-4.31-4.77-6.72l9.1-6.75c1.79,2.45,3.25,4.49,5.05,7.11L276.82,236.96z M250.08,203.24
	c-1.76-1.87-3.64-3.64-5.62-5.3l7.23-8.7c2.42,2.02,4.72,4.19,6.87,6.49L250.08,203.24z"/>
</svg>
