<?xml version="1.0" encoding="utf-8"?>
<!-- Generator: Adobe Illustrator 24.0.3, SVG Export Plug-In . SVG Version: 6.00 Build 0)  -->
<svg version="1.1" id="Ebene_1" xmlns="http://www.w3.org/2000/svg" xmlns:xlink="http://www.w3.org/1999/xlink" x="0px" y="0px"
	 viewBox="0 0 512 512" style="enable-background:new 0 0 512 512;" xml:space="preserve">
<style type="text/css">
	.st0{fill-rule:evenodd;clip-rule:evenodd;}
	.st1{fill:#1A1A1A;stroke:#000000;}
	.st2{fill:#505050;}
</style>
<path class="st1" d="M305.95,502.73c0.63,3.02-1.31,5.97-4.32,6.6c-9.65,2-19.49,3.01-29.35,3H140.5
	c-70.05,0-127.04-49.55-127.04-110.47v-81.28c0-65.17,28.09-127.4,79.09-175.22c2.25-2.1,5.78-1.99,7.88,0.26
	c2.1,2.25,1.99,5.78-0.26,7.88c-48.73,45.69-75.56,105.02-75.56,167.08v81.28c0,54.77,51.98,99.32,115.89,99.32h131.79
	c9.1,0.01,18.17-0.92,27.07-2.77C302.37,497.78,305.32,499.71,305.95,502.73z M320.26,145.36c-2.25-2.1-5.78-1.99-7.88,0.26
	c-2.11,2.25-1.99,5.78,0.26,7.88c31.31,28.88,54.36,65.58,66.78,106.32c0.7,2.37,2.88,3.99,5.34,4v0c0.53,0,1.06-0.08,1.58-0.23
	c2.95-0.87,4.64-3.97,3.77-6.92C377.13,214.02,353.02,175.6,320.26,145.36z M81.04,47.95c0-2.67,0-10.78,5.76-14.7
	c6.52-4.46,15.24-1.01,27.34,3.72c9.51,4.02,19.39,7.13,29.48,9.29c15.9,3,22.06,2.37,24.88-7.19C177.22,9.58,196,5.18,206.41,5.18
	c10.41,0,29.19,4.4,37.91,33.89c2.83,9.57,8.98,10.2,24.9,7.19c10.1-2.16,19.97-5.27,29.48-9.29c12.09-4.74,20.81-8.18,27.34-3.72
	c5.76,3.93,5.76,12.03,5.76,14.7c-0.02,40.91-55.95,90.32-125.4,90.32C136.96,138.26,81.04,88.85,81.04,47.95z M92.17,47.94
	c0,35.64,52.71,79.17,114.22,79.17s114.22-43.53,114.22-79.17c0-4.46-0.9-5.49-0.91-5.5c-1.91-1-10.97,2.56-16.96,4.91
	c-10.16,4.29-20.7,7.59-31.48,9.87c-11.77,2.23-31.46,5.95-37.65-14.98c-5.08-17.19-14.24-25.9-27.21-25.9
	c-12.97,0-22.13,8.72-27.21,25.9C173,63.17,153.3,59.45,141.54,57.22c-10.79-2.28-21.33-5.58-31.48-9.87
	c-5.99-2.35-15.05-5.89-17-4.89v0C93.05,42.47,92.17,43.51,92.17,47.94z M206.42,259.12c22.66,0,41.1,14.22,41.1,31.69
	c0,3.08,2.5,5.58,5.58,5.58s5.58-2.5,5.58-5.58c0-22.08-20.48-40.31-46.67-42.6v-14.45c0-3.08-2.5-5.58-5.58-5.58
	s-5.58,2.5-5.58,5.58v14.45c-26.2,2.29-46.67,20.52-46.67,42.6c0,23.62,23.43,42.84,52.24,42.84c22.66,0,41.1,14.22,41.1,31.7
	c0,17.47-18.44,31.69-41.1,31.69s-41.09-14.22-41.09-31.69c0-3.08-2.5-5.58-5.58-5.58s-5.58,2.5-5.58,5.58
	c0,22.08,20.47,40.3,46.67,42.59v14.45c0,3.08,2.5,5.57,5.58,5.57s5.58-2.5,5.58-5.57v-14.45c26.2-2.29,46.67-20.51,46.67-42.59
	c0-23.63-23.44-42.85-52.25-42.85c-22.66,0-41.09-14.22-41.09-31.69C165.33,273.34,183.76,259.12,206.42,259.12z M506,399.01
	C506,399.01,506,399.01,506,399.01c-0.07,61.35-49.78,111.06-111.13,111.13c-61.37,0-111.13-49.75-111.13-111.13
	c0-61.37,49.75-111.13,111.13-111.13C456.25,287.88,506,337.63,506,399.01z M494.85,399.03c-0.05-55.19-44.79-99.92-99.98-99.98
	c-55.22,0-99.98,44.76-99.98,99.98c0,55.22,44.76,99.98,99.98,99.98C450.09,499.01,494.85,454.25,494.85,399.03
	C494.85,399.03,494.85,399.03,494.85,399.03z M398.68,339.49c-0.53-0.55-1.17-0.98-1.89-1.27c0,0,0,0,0,0
	c-0.65-0.26-1.35-0.41-2.09-0.41c-0.74,0-1.44,0.15-2.08,0.4c-0.01,0-0.02,0.01-0.03,0.01c-0.33,0.13-0.64,0.3-0.94,0.49
	c-0.01,0.01-0.02,0.01-0.03,0.02c-0.32,0.21-0.61,0.45-0.88,0.72l-40.25,40.25c-2.09,2.16-2.09,5.59,0,7.75
	c2.14,2.21,5.67,2.27,7.88,0.13l30.75-30.74v97.81c0,3.08,2.5,5.57,5.57,5.57c3.08,0,5.58-2.5,5.58-5.57v-97.81l31.1,31.1
	c1.04,1.05,2.46,1.63,3.94,1.63c1.48,0,2.89-0.59,3.94-1.63c2.18-2.18,2.18-5.71,0-7.88L398.68,339.49z"/>
</svg>
