<?xml version="1.0" encoding="utf-8"?>
<!-- Generator: Adobe Illustrator 24.0.3, SVG Export Plug-In . SVG Version: 6.00 Build 0)  -->
<svg version="1.1" id="Ebene_1" xmlns="http://www.w3.org/2000/svg" xmlns:xlink="http://www.w3.org/1999/xlink" x="0px" y="0px"
	 viewBox="0 0 512 512" style="enable-background:new 0 0 512 512;" xml:space="preserve">
<path d="M219.34,508c-12.25,0-22.21-9.96-22.21-22.21v-61.38H67.74c-26.6,0-48.24-21.64-48.24-48.24V52.24
	C19.5,25.64,41.14,4,67.74,4H443.9c26.6,0,48.24,21.64,48.24,48.24v323.92c0,26.6-21.64,48.24-48.24,48.24H341.54l-109.12,79.33
	C228.61,506.53,224.09,508,219.34,508z M210.03,485.8c-0.01,2.34,0.94,4.59,2.66,6.31c1.84,1.85,4.37,2.9,6.94,2.9c0,0,0,0,0,0
	c1.91,0,3.71-0.59,5.22-1.69l112.5-81.79H443.9c19.49,0,35.35-15.86,35.35-35.35V52.24c0-19.49-15.86-35.35-35.35-35.35H63.74v0.23
	c-17.62,1.99-31.35,16.99-31.35,35.12v323.92c0,19.49,15.86,35.35,35.35,35.35h142.29V485.8z M255.84,330.36
	c-84.89,0-160.41-37.68-185.62-92.09l11.92-4.97c23.34,49.75,93.94,84.16,173.68,84.16c79.81,0,150.42-34.45,173.72-84.25
	l11.93,4.96c-25.18,54.47-100.69,92.18-185.6,92.18C255.86,330.36,255.84,330.36,255.84,330.36z M279.12,166.11l49.84-49.84
	L378.69,166l-9.11,9.11l-40.61-40.61l-40.73,40.73L279.12,166.11z M132.84,166.1l49.84-49.84l48.86,48.86l-9.12,9.12l-39.74-39.74
	l-40.72,40.72L132.84,166.1z"/>
</svg>
