<?xml version="1.0" encoding="utf-8"?>
<!-- Generator: Adobe Illustrator 24.0.3, SVG Export Plug-In . SVG Version: 6.00 Build 0)  -->
<svg version="1.1" id="Ebene_1" xmlns="http://www.w3.org/2000/svg" xmlns:xlink="http://www.w3.org/1999/xlink" x="0px" y="0px"
	 viewBox="0 0 512 512" style="enable-background:new 0 0 512 512;" xml:space="preserve">
<style type="text/css">
	.st0{fill-rule:evenodd;clip-rule:evenodd;}
	.st1{fill:#1A1A1A;stroke:#000000;}
	.st2{fill:none;stroke:#000000;stroke-width:11;stroke-miterlimit:10;}
</style>
<path d="M463.6,156.2v-10.5h29.1v10.5H463.6z M442.5,82.9l22.9-22.9l-7.4-7.4l-22.9,22.9L442.5,82.9z M458.7,250.2l7.4-7.4
	l-24.1-24.1l-7.4,7.4L458.7,250.2z M103.6,156.2v-10.5H74.5v10.5H103.6z M124.3,82.5l7.4-7.4l-22.9-22.9l-7.4,7.4L124.3,82.5z
	 M109.3,249.3l23.2-23.2l-7.4-7.4l-23.2,23.2L109.3,249.3z M302.1,239.6c8,0,14.5-6.5,14.5-14.5V184h41.1c8,0,14.5-6.5,14.5-14.5
	v-37.1c0-8-6.5-14.5-14.5-14.5h-41.1V76.8c0-8-6.5-14.5-14.5-14.5H265c-8,0-14.5,6.5-14.5,14.5v41.1h-41.1c-8,0-14.5,6.5-14.5,14.5
	v37.1c0,8,6.5,14.5,14.5,14.5h41.1v41.1c0,8,6.5,14.5,14.5,14.5H302.1z M261,173.5h-55.6v-45.1H261V72.8h45.1v55.6h55.6v45.1h-55.6
	v55.6H261V173.5z M52,499c13.1,0,23.8-10.7,23.8-23.8v-4h162c18.6,0,37.1-2.8,54.8-8.2l86.4-26.5c3-0.9,5.8-2.2,8.4-3.7l100.4-58.2
	c8.7-5.1,14.1-14.5,14.1-24.4c0-15.7-12.7-28.4-28.2-28.4c-3.4,0-6.8,0.6-10.1,1.8l-91.1,35l-0.3-5.5c-0.9-17.6-15.4-31.4-33-31.4
	H218.7c-43.6,0-78.6,25.6-100.2,47.1c-5.5,5.5-12.6,8.5-19.9,8.5H75.8v-4c0-13.1-10.7-23.8-23.8-23.8H9.6V360H52
	c7.3,0,13.3,6,13.3,13.3v101.9c0,7.3-6,13.3-13.3,13.3H9.6V499H52z M75.8,387.8h22.8c10.2,0,19.9-4.1,27.4-11.5
	c20.2-20.1,52.7-44.1,92.8-44.1h120.4c12.4,0,22.5,10.1,22.5,22.5s-10.1,22.5-22.5,22.5h-79.4v10.5h79.4c11.1,0,21.5-5.6,27.6-14.9
	l0.7-1.1l99.8-38.4c2.2-0.8,4.4-1.2,6.6-1.2c4.8,0,9.2,1.9,12.5,5.4c3.2,3.4,5,7.8,5,12.6c0,6.3-3.3,12.1-8.8,15.3l-100.3,58.2
	c-2,1.1-4.1,2.1-6.2,2.7l-86.4,26.5c-16.8,5.2-34.2,7.8-51.7,7.8h-162V387.8z M284,23c-34.2,0-66.3,13.3-90.5,37.5
	C169.3,84.7,156,116.8,156,151s13.3,66.3,37.5,90.5c24.2,24.2,56.3,37.5,90.5,37.5s66.3-13.3,90.5-37.5
	c24.2-24.2,37.5-56.3,37.5-90.5s-13.3-66.3-37.5-90.5C350.3,36.3,318.2,23,284,23 M284,12c76.8,0,139,62.2,139,139
	s-62.2,139-139,139s-139-62.2-139-139S207.2,12,284,12L284,12z"/>
</svg>
