<?xml version="1.0" encoding="utf-8"?>
<!-- Generator: Adobe Illustrator 24.0.3, SVG Export Plug-In . SVG Version: 6.00 Build 0)  -->
<svg version="1.1" id="Ebene_1" xmlns="http://www.w3.org/2000/svg" xmlns:xlink="http://www.w3.org/1999/xlink" x="0px" y="0px"
	 viewBox="0 0 512 512" style="enable-background:new 0 0 512 512;" xml:space="preserve">
<style type="text/css">
	.st0{fill-rule:evenodd;clip-rule:evenodd;}
	.st1{fill:#1A1A1A;stroke:#000000;}
</style>
<path d="M450.58,118.02h-55.73V62.29c0-8.93-7.26-16.19-16.19-16.19h-30.82c-8.93,0-16.19,7.26-16.19,16.19v55.73h-55.73
	c-8.93,0-16.19,7.26-16.19,16.19v30.82c0,8.93,7.26,16.19,16.19,16.19h55.73v55.73c0,8.93,7.26,16.19,16.19,16.19h30.82
	c8.93,0,16.19-7.26,16.19-16.19v-55.73h55.73c8.93,0,16.19-7.26,16.19-16.19v-30.82C466.77,125.28,459.51,118.02,450.58,118.02z
	 M454.94,169.39h-71.92v71.92h-39.54v-71.92h-71.92v-39.54h71.92V57.93h39.54v71.92h71.92V169.39z M460.85,5H265.64
	c-25.92,0-47.01,21.09-47.01,47.01v123.53c-14.74-4.07-29.99-6.16-45.45-6.16c-93.91,0-170.31,76.4-170.31,170.31
	S79.27,510,173.17,510c29.76,0,59.22-7.96,85.19-23.02l1.33-0.77l86.41,13.42c0.55,0.04,1.39,0.09,1.73,0.09
	c8.93,0,16.19-7.26,16.19-16.19c0-2.24-0.44-4.35-1.34-6.42l-32.08-72.48l0.69-1.71c4.78-11.89,8.19-24.33,10.19-37.05
	c2.83-0.52,5.51-1.75,7.76-3.59l82.89-68.04h28.73c25.92,0,47.01-21.09,47.01-47.01V52.01C507.87,26.09,486.78,5,460.85,5z
	 M355.37,489.11l-98.14-15.25l-1.84,1.12c-24.9,15.17-53.33,23.19-82.21,23.19c-87.38,0-158.47-71.09-158.47-158.47
	s71.09-158.47,158.47-158.47c15.47,0,30.7,2.21,45.34,6.58l0.11-0.34v59.76c0,25.92,21.09,47.01,47.01,47.01h55.73v54.88
	c0,6.27,3.41,11.74,8.46,14.7c-2.06,13.25-5.78,26.19-11.11,38.52l-1.03,2.37L355.37,489.11z M496.03,247.23
	c0,19.4-15.78,35.18-35.18,35.18H427.9l-86.24,70.79c-0.91,0.72-2.06,1.11-3.22,1.11c-2.89,0-5.23-2.33-5.23-5.19v-66.71h-67.56
	c-19.4,0-35.18-15.78-35.18-35.18V52.01c0-19.4,15.78-35.18,35.18-35.18h195.21c19.4,0,35.18,15.78,35.18,35.18V247.23z
	 M127.72,339.69c0,8.93-7.26,16.19-16.19,16.19c-8.93,0-16.19-7.26-16.19-16.19c0-8.93,7.26-16.19,16.19-16.19
	C120.46,323.5,127.72,330.77,127.72,339.69z M189.36,339.69c0,8.93-7.26,16.19-16.19,16.19c-8.93,0-16.19-7.26-16.19-16.19
	c0-8.93,7.26-16.19,16.19-16.19C182.1,323.5,189.36,330.77,189.36,339.69z M251.01,339.69c0,8.93-7.26,16.19-16.19,16.19
	s-16.19-7.26-16.19-16.19c0-8.93,7.26-16.19,16.19-16.19S251.01,330.77,251.01,339.69z"/>
</svg>
